<svg xmlns="http://www.w3.org/2000/svg" viewBox="0 0 260 64" fill="currentColor">
  <!-- Receipt/Document Icon -->
  <g transform="translate(0, 4)">
    <!-- Main receipt body -->
    <path d="M8 0h32c2.2 0 4 1.8 4 4v44c0 1.1-.45 2.1-1.17 2.83l-6 6c-.73.72-1.73 1.17-2.83 1.17H8c-2.2 0-4-1.8-4-4V4c0-2.2 1.8-4 4-4z"/>
    <!-- Folded corner -->
    <path d="M44 44v8l-8-8h8z" fill-opacity="0.7"/>
    <!-- Receipt lines -->
    <rect x="12" y="12" width="24" height="3" rx="1.5" fill="#fff"/>
    <rect x="12" y="20" width="20" height="3" rx="1.5" fill="#fff"/>
    <rect x="12" y="28" width="16" height="3" rx="1.5" fill="#fff"/>
    <rect x="12" y="36" width="22" height="3" rx="1.5" fill="#fff"/>
    <!-- Dollar sign circle on receipt -->
    <circle cx="36" cy="20" r="8" fill="#fff"/>
    <text x="36" y="24" font-family="Arial, sans-serif" font-size="12" font-weight="bold" text-anchor="middle" fill="currentColor">$</text>
  </g>

  <!-- "Expen$ed" Text -->
  <text x="60" y="44" font-family="'Segoe UI', 'Arial', sans-serif" font-size="36" font-weight="600" letter-spacing="-0.5">
    Expen<tspan font-weight="700">$</tspan>ed
  </text>
</svg>
